<svg width="16" height="14" viewBox="0 0 16 14" fill="none" xmlns="http://www.w3.org/2000/svg">
<path d="M15.7786 7.6193L10.445 13.7433C9.96875 14.2901 9.14331 13.9073 9.14331 13.1236V9.62418H4.82564C4.40339 9.62418 4.06369 9.23414 4.06369 8.74932V5.2499C4.06369 4.76509 4.40339 4.37505 4.82564 4.37505H9.14331V0.87563C9.14331 0.0955512 9.96557 -0.290843 10.445 0.255941L15.7786 6.37992C16.0738 6.72258 16.0738 7.27665 15.7786 7.6193ZM6.09554 13.561V12.1029C6.09554 11.8623 5.9241 11.6655 5.71457 11.6655H3.04777C2.48584 11.6655 2.03185 11.1442 2.03185 10.499V3.50019C2.03185 2.85499 2.48584 2.33372 3.04777 2.33372H5.71457C5.9241 2.33372 6.09554 2.13688 6.09554 1.89629V0.438203C6.09554 0.197618 5.9241 0.000775288 5.71457 0.000775288H3.04777C1.36515 0.000775288 0 1.56822 0 3.50019V10.499C0 12.431 1.36515 13.9985 3.04777 13.9985H5.71457C5.9241 13.9985 6.09554 13.8016 6.09554 13.561Z" fill="#000"/>
</svg>
