<svg width="18" height="21" viewBox="0 0 18 21" fill="none" xmlns="http://www.w3.org/2000/svg">
<path d="M10.2851 1.3125V2.1C13.218 2.70826 15.4277 5.35664 15.4277 8.53125V9.30234C15.4277 11.2342 16.1228 13.0922 17.3763 14.5359L17.6736 14.8764C18.011 15.266 18.0954 15.8156 17.8865 16.2873C17.6776 16.759 17.2196 17.0625 16.7134 17.0625H1.28563C0.779412 17.0625 0.320236 16.759 0.112846 16.2873C-0.0945446 15.8156 -0.0115925 15.266 0.324776 14.8764L0.622724 14.5359C1.87783 13.0922 2.57128 11.2342 2.57128 9.30234V8.53125C2.57128 5.35664 4.74482 2.70826 7.71385 2.1V1.3125C7.71385 0.587754 8.28837 0 8.99949 0C9.71061 0 10.2851 0.587754 10.2851 1.3125ZM8.99949 21C8.31649 21 7.66162 20.7252 7.1795 20.233C6.69739 19.7408 6.42821 19.0354 6.42821 18.375H11.5708C11.5708 19.0354 11.3016 19.7408 10.8195 20.233C10.3374 20.7252 9.64633 21 8.99949 21Z" fill="#B1C6C4"/>
</svg>
