<svg width="18" height="22" viewBox="0 0 18 22" fill="none" xmlns="http://www.w3.org/2000/svg">
<path d="M3.85714 2.2821C3.85714 1.55736 4.4317 0.969604 5.14286 0.969604C5.85402 0.969604 6.42857 1.55736 6.42857 2.2821V3.5946H11.5714V2.2821C11.5714 1.55736 12.146 0.969604 12.8571 0.969604C13.5683 0.969604 14.1429 1.55736 14.1429 2.2821V3.5946H16.0714C17.1362 3.5946 18 4.47603 18 5.56335V7.5321H0V5.56335C0 4.47603 0.863437 3.5946 1.92857 3.5946H3.85714V2.2821ZM18 20.0009C18 21.0878 17.1362 21.9696 16.0714 21.9696H1.92857C0.863437 21.9696 0 21.0878 0 20.0009V8.8446H18V20.0009Z" fill="#C8C8C8"/>
</svg>
