<svg width="22" height="22" viewBox="0 0 22 22" fill="none" xmlns="http://www.w3.org/2000/svg">
<path d="M6.87485 16.5001L12.3361 16.5001V5.50002H6.87485V16.5001ZM4.12491 0.000120313H1.3363C0.617447 0.000120313 0 0.617893 0 1.37501V4.08634L5.49988 4.08631L5.49991 1.37497C5.49988 0.617893 4.88114 0.000120313 4.12491 0.000120313ZM6.87485 20.5864C6.87485 21.3435 7.49229 21.9227 8.24981 21.9227H10.9611C11.7182 21.9227 12.3352 21.3057 12.2974 20.5486V17.7977H6.83618L6.87485 20.5864ZM0 20.5864C0 21.3435 0.617447 21.9227 1.3363 21.9227H4.08624C4.84333 21.9227 5.42253 21.3053 5.42253 20.5864L5.49988 17.8751H0V20.5864ZM0 16.5001L5.49988 16.5001V5.50002H0V16.5001ZM18.0422 4.99299L12.7314 6.41268L15.5763 17.0131L20.8914 15.5934L18.0422 4.99299ZM21.9522 19.5637L21.2441 16.9139L15.9333 18.334L16.6444 20.9834C16.8403 21.713 17.5962 22.1488 18.3275 21.9532L20.985 21.2434C21.7159 21.0462 22.1499 20.2942 21.9522 19.5637ZM16.9723 1.01578C16.776 0.286173 16.0205 -0.148672 15.2897 0.0468361L12.6351 0.756683C12.5031 0.79193 12.3937 0.863417 12.2829 0.931566C12.0961 0.393595 11.5984 0 10.9982 0H8.2869C7.52938 0 6.91193 0.617463 6.91193 1.33633L6.87485 4.12502L12.1169 4.12508L12.3749 5.08629L17.6814 3.66617L16.9723 1.01578Z" fill="#000"/>
</svg>
