<svg width="27" height="26" viewBox="0 0 27 26" fill="none" xmlns="http://www.w3.org/2000/svg">
<path d="M0 21.6667C0 20.7079 0.755684 19.9333 1.6875 19.9333H4.56996C5.2207 18.4004 6.70781 17.3333 8.4375 17.3333C10.1672 17.3333 11.6068 18.4004 12.3029 19.9333H25.3125C26.2459 19.9333 27 20.7079 27 21.6667C27 22.6254 26.2459 23.4 25.3125 23.4H12.3029C11.6068 24.9329 10.1672 26 8.4375 26C6.70781 26 5.2207 24.9329 4.56996 23.4H1.6875C0.755684 23.4 0 22.6254 0 21.6667ZM10.125 21.6667C10.125 20.7079 9.3709 19.9333 8.4375 19.9333C7.5041 19.9333 6.75 20.7079 6.75 21.6667C6.75 22.6254 7.5041 23.4 8.4375 23.4C9.3709 23.4 10.125 22.6254 10.125 21.6667ZM18.5625 8.66667C20.2922 8.66667 21.7318 9.73375 22.4279 11.2667H25.3125C26.2459 11.2667 27 12.0413 27 13C27 13.9587 26.2459 14.7333 25.3125 14.7333H22.4279C21.7318 16.2663 20.2922 17.3333 18.5625 17.3333C16.8328 17.3333 15.3457 16.2663 14.6971 14.7333H1.6875C0.755684 14.7333 0 13.9587 0 13C0 12.0413 0.755684 11.2667 1.6875 11.2667H14.6971C15.3457 9.73375 16.8328 8.66667 18.5625 8.66667ZM20.25 13C20.25 12.0413 19.4959 11.2667 18.5625 11.2667C17.6291 11.2667 16.875 12.0413 16.875 13C16.875 13.9587 17.6291 14.7333 18.5625 14.7333C19.4959 14.7333 20.25 13.9587 20.25 13ZM25.3125 2.6C26.2459 2.6 27 3.37621 27 4.33333C27 5.29208 26.2459 6.06667 25.3125 6.06667H13.9904C13.2943 7.59958 11.8547 8.66667 10.125 8.66667C8.39531 8.66667 6.9082 7.59958 6.25957 6.06667H1.6875C0.755684 6.06667 0 5.29208 0 4.33333C0 3.37621 0.755684 2.6 1.6875 2.6H6.25957C6.9082 1.06979 8.39531 0 10.125 0C11.8547 0 13.2943 1.06979 13.9904 2.6H25.3125ZM8.4375 4.33333C8.4375 5.29208 9.1916 6.06667 10.125 6.06667C11.0584 6.06667 11.8125 5.29208 11.8125 4.33333C11.8125 3.37621 11.0584 2.6 10.125 2.6C9.1916 2.6 8.4375 3.37621 8.4375 4.33333Z" fill="#000"/>
</svg>
