<svg width="27" height="22" viewBox="0 0 27 22" fill="none" xmlns="http://www.w3.org/2000/svg">
<path d="M13.142 5.94852L4.49966 13.0665V20.7488C4.49966 20.9477 4.57868 21.1385 4.71933 21.2792C4.85999 21.4198 5.05075 21.4988 5.24966 21.4988L10.5025 21.4852C10.7007 21.4842 10.8905 21.4048 11.0304 21.2642C11.1702 21.1237 11.2487 20.9335 11.2487 20.7352V16.2488C11.2487 16.0499 11.3277 15.8591 11.4684 15.7185C11.609 15.5778 11.7998 15.4988 11.9987 15.4988H14.9987C15.1976 15.4988 15.3884 15.5778 15.5291 15.7185C15.6697 15.8591 15.7487 16.0499 15.7487 16.2488V20.732C15.7484 20.8306 15.7676 20.9284 15.8051 21.0197C15.8427 21.1109 15.8979 21.1939 15.9676 21.2638C16.0372 21.3337 16.12 21.3891 16.2112 21.427C16.3023 21.4648 16.4 21.4843 16.4987 21.4843L21.7497 21.4988C21.9486 21.4988 22.1393 21.4198 22.28 21.2792C22.4206 21.1385 22.4997 20.9477 22.4997 20.7488V13.0613L13.8592 5.94852C13.7576 5.86664 13.6311 5.82199 13.5006 5.82199C13.3701 5.82199 13.2436 5.86664 13.142 5.94852ZM26.7934 10.7865L22.8747 7.55633V1.06367C22.8747 0.914491 22.8154 0.771417 22.7099 0.665927C22.6044 0.560438 22.4613 0.501175 22.3122 0.501175H19.6872C19.538 0.501175 19.3949 0.560438 19.2894 0.665927C19.1839 0.771417 19.1247 0.914491 19.1247 1.06367V4.46727L14.9279 1.01446C14.5252 0.68304 14.0198 0.501837 13.4983 0.501837C12.9767 0.501837 12.4713 0.68304 12.0686 1.01446L0.203102 10.7865C0.146143 10.8336 0.0990189 10.8914 0.0644214 10.9567C0.0298239 11.022 0.00843151 11.0935 0.00146654 11.167C-0.00549843 11.2406 0.00210052 11.3148 0.0238292 11.3855C0.0455579 11.4561 0.0809905 11.5217 0.128102 11.5787L1.32341 13.0318C1.3704 13.0889 1.42819 13.1362 1.49348 13.171C1.55876 13.2058 1.63027 13.2273 1.7039 13.2344C1.77752 13.2415 1.85183 13.234 1.92255 13.2124C1.99328 13.1907 2.05904 13.1553 2.11607 13.1082L13.142 4.02664C13.2436 3.94476 13.3701 3.90011 13.5006 3.90011C13.6311 3.90011 13.7576 3.94476 13.8592 4.02664L24.8856 13.1082C24.9425 13.1553 25.0082 13.1907 25.0788 13.2125C25.1494 13.2342 25.2237 13.2418 25.2972 13.2348C25.3708 13.2279 25.4423 13.2065 25.5076 13.1719C25.5729 13.1373 25.6307 13.0902 25.6778 13.0332L26.8731 11.5801C26.9202 11.5228 26.9554 11.4568 26.9769 11.3859C26.9984 11.3149 27.0056 11.2405 26.9982 11.1667C26.9908 11.093 26.9689 11.0214 26.9338 10.9562C26.8986 10.8909 26.8509 10.8332 26.7934 10.7865Z" fill="#000"/>
</svg>
