<svg width="13" height="19" viewBox="0 0 13 19" fill="none" xmlns="http://www.w3.org/2000/svg">
<path d="M7.58062 0.82121C7.28861 -0.250501 5.7525 -0.296728 5.42222 0.82121C3.69444 6.6713 0 8.26593 0 12.3882C0 16.0389 2.90712 19 6.5 19C10.0929 19 13 16.0406 13 12.3882C13 8.24473 9.31531 6.70099 7.58062 0.82121ZM3.25 9.83936C3.25 9.27487 3.68428 8.85968 4.225 8.85968C4.76572 8.85968 5.2 9.2753 5.2 9.83936C5.2 10.4034 4.76531 10.8572 4.225 10.8572C3.68469 10.8572 3.25 10.4034 3.25 9.83936ZM5.00906 14.7293C4.88312 14.8607 4.71656 14.8904 4.55 14.8904C4.38344 14.8904 4.21736 14.8242 4.09053 14.6916C3.83662 14.4265 3.83662 13.9974 4.09053 13.7323L7.99053 9.69906C8.24444 9.434 8.65597 9.434 8.90947 9.69906C9.16337 9.96413 9.16337 10.3933 8.90947 10.6584L5.00906 14.7293ZM8.775 15.569C8.23428 15.569 7.8 15.1156 7.8 14.5893C7.8 14.0248 8.23428 13.6096 8.775 13.6096C9.31572 13.6096 9.75 14.063 9.75 14.5893C9.75 15.1534 9.31531 15.569 8.775 15.569Z" fill="white"/>
</svg>
