<svg width="18" height="18" viewBox="0 0 18 18" fill="none" xmlns="http://www.w3.org/2000/svg">
<path d="M5.62487 13.5L10.0931 13.5001V4.50002H5.62487V13.5ZM3.37492 9.84379e-05H1.09333C0.505184 9.84379e-05 0 0.505549 0 1.125V3.34337L4.4999 3.34334L4.49993 1.12498C4.4999 0.505549 3.99366 9.84379e-05 3.37492 9.84379e-05ZM5.62487 16.8434C5.62487 17.4629 6.13006 17.9368 6.74985 17.9368H8.96816C9.5876 17.9368 10.0924 17.4319 10.0615 16.8125V14.5618H5.59323L5.62487 16.8434ZM0 16.8434C0 17.4629 0.505184 17.9368 1.09333 17.9368H3.34328C3.96272 17.9368 4.43662 17.4316 4.43662 16.8434L4.4999 14.6251H0V16.8434ZM0 13.5L4.4999 13.5V4.50002H0V13.5ZM14.7618 4.08517L10.4166 5.24674L12.7442 13.9198L17.0929 12.7583L14.7618 4.08517ZM17.9609 16.0067L17.3816 13.8386L13.0363 15.0005L13.6182 17.1683C13.7784 17.7652 14.3969 18.1217 14.9952 17.9617L17.1696 17.381C17.7676 17.2196 18.1226 16.6044 17.9609 16.0067ZM13.8864 0.831097C13.7258 0.234141 13.1077 -0.121641 12.5097 0.0383205L10.3378 0.619104C10.2298 0.647943 10.1403 0.706432 10.0496 0.76219C9.89679 0.322032 9.48962 0 8.9985 0H6.78019C6.1604 0 5.65521 0.505197 5.65521 1.09336L5.62487 3.37501L9.91384 3.37506L10.1249 4.16151L14.4666 2.99959L13.8864 0.831097Z" fill="#000"/>
</svg>
