<svg width="21" height="22" viewBox="0 0 21 22" fill="none" xmlns="http://www.w3.org/2000/svg">
<path d="M9.1875 2.2821C9.1875 1.55736 9.77402 0.969604 10.5 0.969604C11.226 0.969604 11.8125 1.55736 11.8125 2.2821V4.25085C11.8125 4.9756 11.226 5.56335 10.5 5.56335C9.77402 5.56335 9.1875 4.9756 9.1875 4.25085V2.2821ZM14.4375 11.4696C14.4375 13.6434 12.6738 15.4071 10.5 15.4071C8.28926 15.4071 6.5625 13.6434 6.5625 11.4696C6.5625 9.25886 8.28926 7.5321 10.5 7.5321C12.6738 7.5321 14.4375 9.25886 14.4375 11.4696ZM0 11.4696C0 10.7436 0.587754 10.1571 1.3125 10.1571H3.28125C4.006 10.1571 4.59375 10.7436 4.59375 11.4696C4.59375 12.1956 4.006 12.7821 3.28125 12.7821H1.3125C0.587754 12.7821 0 12.1956 0 11.4696ZM19.6875 10.1571C20.4135 10.1571 21 10.7436 21 11.4696C21 12.1956 20.4135 12.7821 19.6875 12.7821H17.7188C16.9928 12.7821 16.4062 12.1956 16.4062 11.4696C16.4062 10.7436 16.9928 10.1571 17.7188 10.1571H19.6875ZM10.5 21.9696C9.77402 21.9696 9.1875 21.3831 9.1875 20.6571V18.6884C9.1875 17.9624 9.77402 17.3759 10.5 17.3759C11.226 17.3759 11.8125 17.9624 11.8125 18.6884V20.6571C11.8125 21.3831 11.226 21.9696 10.5 21.9696ZM3.00932 18.9591C2.49703 18.4464 2.49703 17.6178 3.00932 17.1052L4.32305 15.7927C4.83574 15.28 5.66426 15.28 6.17695 15.7927C6.68965 16.3053 6.68965 17.1339 6.17695 17.6466L4.86445 18.9591C4.35176 19.4718 3.52201 19.4718 3.00932 18.9591ZM16.1355 3.97892C16.6482 3.46664 17.4768 3.46664 17.9895 3.97892C18.5021 4.49162 18.5021 5.32136 17.9895 5.83406L16.677 7.14656C16.1643 7.65925 15.3357 7.65925 14.823 7.14656C14.3104 6.63386 14.3104 5.80535 14.823 5.29265L16.1355 3.97892ZM17.9895 18.9591C17.4768 19.4718 16.6482 19.4718 16.1355 18.9591L14.823 17.6466C14.3104 17.1339 14.3104 16.3053 14.823 15.7927C15.3357 15.28 16.1643 15.28 16.677 15.7927L17.9895 17.1052C18.5021 17.6178 18.5021 18.4464 17.9895 18.9591ZM3.00932 5.83406C2.49703 5.32136 2.49703 4.49162 3.00932 3.97892C3.52201 3.46664 4.35176 3.46664 4.86445 3.97892L6.17695 5.29265C6.68965 5.80535 6.68965 6.63386 6.17695 7.14656C5.66426 7.65925 4.83574 7.65925 4.32305 7.14656L3.00932 5.83406Z" fill="#C8C8C8"/>
</svg>
