<svg width="18" height="18" viewBox="0 0 18 18" fill="none" xmlns="http://www.w3.org/2000/svg">
<path d="M9 7.71429C10.2431 7.71429 11.25 6.74879 11.25 5.5583C11.25 4.36781 8.96384 1.28571 8.96384 1.28571C8.96384 1.28571 6.75 4.36741 6.75 5.5567C6.75 6.74598 7.75848 7.71429 9 7.71429ZM15.4286 0H9.97634C10.5035 0.703125 11.019 1.41308 11.4895 2.15478C11.5714 2.28857 11.6598 2.42879 11.7482 2.57143H15.4286V11.2781C14.5233 11.8013 13.3726 11.7281 12.5369 11.0596L11.9371 10.6071C11.7031 10.4194 11.3689 10.4194 11.1347 10.6071L10.5702 11.0583C9.63161 11.8093 8.29687 11.8093 7.3583 11.0583L6.7942 10.6071C6.5602 10.4194 6.22607 10.4194 5.99183 10.6071L5.42813 11.0571C4.62857 11.7281 3.47665 11.8004 2.57143 11.2781V2.57143H6.25379C6.33998 2.42867 6.42604 2.28861 6.51222 2.15478C6.98304 1.41308 7.49732 0.703125 8.02366 0H2.57143C1.15071 0 0 1.15071 0 2.57143V15.4286C0 16.8493 1.15071 18 2.57143 18H15.4286C16.8493 18 18 16.8493 18 15.4286V2.57143C18 1.15071 16.8509 0 15.4286 0Z" fill="#000"/>
</svg>
