<svg width="23" height="23" viewBox="0 0 23 23" fill="none" xmlns="http://www.w3.org/2000/svg">
<path d="M22.4744 19.9297L17.0973 14.5531C18.3201 12.738 18.9234 10.4702 18.6004 8.05362C18.0496 3.94326 14.6805 0.59828 10.5656 0.0773767C4.44768 -0.696679 -0.696793 4.44722 0.0773937 10.5645C0.598489 14.6807 3.94428 18.0522 8.05555 18.6001C10.4724 18.9231 12.7409 18.32 14.5558 17.0972L19.9329 22.4738C20.6346 23.1754 21.7725 23.1754 22.4742 22.4738C23.1752 21.7713 23.1752 20.6304 22.4744 19.9297ZM3.55328 9.34274C3.55328 6.17249 6.13271 3.59335 9.3033 3.59335C12.4739 3.59335 15.0533 6.17249 15.0533 9.34274C15.0533 12.513 12.4739 15.0921 9.3033 15.0921C6.13271 15.0921 3.55328 12.5139 3.55328 9.34274Z" fill="#000"/>
</svg>
