<svg width="20" height="22" viewBox="0 0 20 22" fill="none" xmlns="http://www.w3.org/2000/svg">
<path d="M19.9427 7.15859C20.0794 7.52813 19.9634 7.94492 19.6816 8.21562L17.887 9.90859C17.9326 10.2652 17.9575 10.6305 17.9575 11C17.9575 11.3695 17.9326 11.7348 17.887 12.0914L19.6816 13.7844C19.9634 14.0551 20.0794 14.4719 19.9427 14.8414C19.7603 15.3527 19.5407 15.8469 19.292 16.3152L19.0972 16.6633C18.8237 17.1359 18.517 17.5828 18.1813 18.0082C17.9326 18.3133 17.5306 18.4207 17.1659 18.3004L14.8575 17.5355C14.3022 17.9781 13.6515 18.3477 13.034 18.6313L12.5159 21.0848C12.433 21.4715 12.1429 21.7465 11.7617 21.8496C11.1897 21.9484 10.6012 22 9.963 22C9.39936 22 8.81086 21.9484 8.23894 21.8496C7.85766 21.7465 7.56755 21.4715 7.48466 21.0848L6.96662 18.6313C6.3118 18.3477 5.69844 17.9781 5.14309 17.5355L2.83633 18.3004C2.46997 18.4207 2.06589 18.3133 1.82054 18.0082C1.48444 17.5828 1.17775 17.1359 0.904223 16.6633L0.710266 16.3152C0.458703 15.8469 0.23988 15.3527 0.0562839 14.8414C-0.0779938 14.4719 0.0351476 14.0551 0.319452 13.7844L2.11231 12.0914C2.06672 11.7348 2.0431 11.3695 2.0431 11C2.0431 10.6305 2.06672 10.2652 2.11231 9.90859L0.319452 8.21562C0.0351476 7.94492 -0.0779938 7.53242 0.0562839 7.15859C0.23988 6.64727 0.459117 6.15313 0.710266 5.68477L0.903809 5.33672C1.17775 4.86406 1.48444 4.41719 1.82054 3.99395C2.06589 3.68672 2.46997 3.58016 2.83633 3.70133L5.14309 4.46445C5.69844 4.02016 6.3118 3.65062 6.96662 3.37004L7.48466 0.916523C7.56755 0.526367 7.85766 0.216563 8.23894 0.15082C8.81086 0.0516055 9.39936 0 10.0003 0C10.6012 0 11.1897 0.0516055 11.7617 0.15082C12.1429 0.216563 12.433 0.526367 12.5159 0.916523L13.034 3.37004C13.6515 3.65062 14.3022 4.02016 14.8575 4.46445L17.1659 3.70133C17.5306 3.58016 17.9326 3.68672 18.1813 3.99395C18.517 4.41719 18.8237 4.86406 19.0972 5.33672L19.292 5.68477C19.5407 6.15313 19.7603 6.64727 19.9427 7.15859ZM10.0003 14.4375C11.8321 14.4375 13.3158 12.8992 13.3158 10.9613C13.3158 9.10078 11.8321 7.52383 10.0003 7.52383C8.16848 7.52383 6.6848 9.10078 6.6848 10.9613C6.6848 12.8992 8.16848 14.4375 10.0003 14.4375Z" fill="#000"/>
</svg>
