<svg width="18" height="18" viewBox="0 0 18 18" fill="none" xmlns="http://www.w3.org/2000/svg">
<path d="M14.0027 9L10.125 8.96836V3.34336C10.125 2.72215 9.62121 2.25 9 2.25C8.37879 2.25 7.875 2.75379 7.875 3.34336V8.96836L4.00078 9C3.76523 9 3.54727 9.13359 3.44109 9.34805C3.33562 9.55898 3.3576 9.8093 3.50262 10.0027L5.87566 12.7494L6.75 13.623V18H11.25V13.623L12.1247 12.7484L14.4977 10.0016C14.6428 9.80824 14.6647 9.55793 14.5593 9.34699C14.4527 9.13359 14.2348 9 14.0027 9ZM5.34375 5.34375C5.80781 5.34375 6.1875 4.96406 6.1875 4.5C6.1875 4.03594 5.80781 3.65625 5.34375 3.65625C4.87969 3.65625 4.5 4.03594 4.5 4.5C4.5 4.96406 4.87969 5.34375 5.34375 5.34375ZM3.09375 3.375C3.55781 3.375 3.9375 2.99707 3.9375 2.53125C3.9375 2.06543 3.55781 1.6875 3.09375 1.6875C2.62969 1.6875 2.25 2.06543 2.25 2.53125C2.25 2.99707 2.62793 3.375 3.09375 3.375ZM3.9375 6.46875C3.9375 6.00469 3.55781 5.625 3.09375 5.625C2.62969 5.625 2.25 6.00469 2.25 6.46875C2.25 6.93281 2.62793 7.3125 3.09375 7.3125C3.55957 7.3125 3.9375 6.93281 3.9375 6.46875ZM0.84375 3.65625C0.37793 3.65625 0 4.03594 0 4.5C0 4.96406 0.37793 5.34375 0.84375 5.34375C1.30957 5.34375 1.6875 4.96406 1.6875 4.5C1.6875 4.03594 1.30957 3.65625 0.84375 3.65625ZM0.84375 0C0.37793 0 0 0.37793 0 0.84375C0 1.30957 0.37793 1.6875 0.84375 1.6875C1.30957 1.6875 1.6875 1.30957 1.6875 0.84375C1.6875 0.37793 1.30957 0 0.84375 0ZM0.84375 7.3125C0.37793 7.3125 0 7.69219 0 8.15625C0 8.62031 0.37793 9 0.84375 9C1.30957 9 1.6875 8.62031 1.6875 8.15625C1.6875 7.69219 1.30957 7.3125 0.84375 7.3125ZM12.6562 5.34375C13.1203 5.34375 13.5 4.96406 13.5 4.5C13.5 4.03594 13.1221 3.65625 12.6562 3.65625C12.1904 3.65625 11.8125 4.03594 11.8125 4.5C11.8125 4.96406 12.1922 5.34375 12.6562 5.34375ZM14.9062 5.625C14.4404 5.625 14.0625 6.00293 14.0625 6.46875C14.0625 6.93457 14.4404 7.3125 14.9062 7.3125C15.3721 7.3125 15.75 6.93281 15.75 6.46875C15.75 6.00469 15.3703 5.625 14.9062 5.625ZM14.9062 1.6875C14.4404 1.6875 14.0625 2.06543 14.0625 2.53125C14.0625 2.99707 14.4422 3.375 14.9062 3.375C15.3703 3.375 15.75 2.99707 15.75 2.53125C15.75 2.06543 15.3703 1.6875 14.9062 1.6875ZM17.1562 3.65625C16.6904 3.65625 16.3125 4.03418 16.3125 4.5C16.3125 4.96582 16.6904 5.34375 17.1562 5.34375C17.6221 5.34375 18 4.96406 18 4.5C18 4.03594 17.6238 3.65625 17.1562 3.65625ZM17.1562 7.3125C16.6904 7.3125 16.3125 7.69043 16.3125 8.15625C16.3125 8.62207 16.6922 9 17.1562 9C17.6203 9 18 8.62031 18 8.15625C18 7.69219 17.6238 7.3125 17.1562 7.3125ZM17.1562 1.6875C17.6238 1.6875 18 1.30957 18 0.84375C18 0.37793 17.6238 0 17.1562 0C16.6887 0 16.3125 0.37793 16.3125 0.84375C16.3125 1.30957 16.6922 1.6875 17.1562 1.6875Z" fill="#000"/>
</svg>
