<svg width="12" height="22" viewBox="0 0 12 22" fill="none" xmlns="http://www.w3.org/2000/svg">
<path d="M6.66667 14.2369V7.54366C6.66667 7.18414 6.36458 6.88626 6 6.88626C5.63542 6.88626 5.33333 7.18414 5.33333 7.54366V14.2369C4.5575 14.5091 4 15.2333 4 16.0912C4 17.18 4.89583 18.0634 6 18.0634C7.10417 18.0634 8 17.18 8 16.0912C8 15.2312 7.44167 14.5081 6.66667 14.2369ZM10.6667 12.4126V5.57144C10.6667 3.02934 8.57833 0.969604 6.0375 0.969604C3.49667 0.969604 1.33333 3.02934 1.33333 5.57144V12.4126C0.510417 13.4295 0 14.6929 0 16.0899C0 19.3564 2.6875 21.9696 6 21.9696C9.3125 21.9696 12 19.3564 12 16.0899C12 14.6929 11.4917 13.4233 10.6667 12.4126ZM6 19.377C4.16125 19.377 2.66667 17.9031 2.66667 16.1269C2.66667 15.0792 3.17708 14.1185 4 13.5076V5.60637C4 4.51754 4.89583 3.63415 6 3.63415C7.10417 3.63415 8 4.51754 8 5.60637V13.5076C8.82292 14.1136 9.33333 15.0792 9.33333 16.1269C9.33333 17.9019 7.8375 19.377 6 19.377Z" fill="#C8C8C8"/>
</svg>
