<svg width="16" height="23" viewBox="0 0 16 23" fill="none" xmlns="http://www.w3.org/2000/svg">
<path d="M0 14.5269C0 11.2403 4.65 4.21493 6.85909 1.06615C7.41818 0.270757 8.58182 0.270757 9.14091 1.06615C11.35 4.21493 16 11.2403 16 14.5269C16 18.9315 12.4182 22.4696 8 22.4696C3.58182 22.4696 0 18.9315 0 14.5269ZM4.36364 14.5269C4.36364 14.1722 4.03636 13.8085 3.63636 13.8085C3.23455 13.8085 2.90909 14.1722 2.90909 14.5269C2.90909 17.3466 5.18636 19.5961 8 19.5961C8.4 19.5961 8.72727 19.2728 8.72727 18.8777C8.72727 18.4826 8.4 18.1593 8 18.1593C5.99091 18.1593 4.36364 16.5519 4.36364 14.5269Z" fill="#000"/>
</svg>
