<svg width="9" height="11" viewBox="0 0 9 11" fill="none" xmlns="http://www.w3.org/2000/svg">
<path d="M0.5 7.02866C0.5 5.38535 2.825 1.87266 3.92955 0.298271C4.20909 -0.0994237 4.79091 -0.0994237 5.07046 0.298271C6.175 1.87266 8.5 5.38535 8.5 7.02866C8.5 9.23097 6.70909 11 4.5 11C2.29091 11 0.5 9.23097 0.5 7.02866ZM2.68182 7.02866C2.68182 6.85131 2.51818 6.66947 2.31818 6.66947C2.11727 6.66947 1.95455 6.85131 1.95455 7.02866C1.95455 8.4385 3.09318 9.56323 4.5 9.56323C4.7 9.56323 4.86364 9.40159 4.86364 9.20403C4.86364 9.00647 4.7 8.84484 4.5 8.84484C3.49545 8.84484 2.68182 8.04114 2.68182 7.02866Z" fill="#000"/>
</svg>
